<svg version="1.1" id="Layer_1" xmlns="http://www.w3.org/2000/svg" x="0" y="0" viewBox="0 0 143.4 133.4" style="enable-background:new 0 0 143.4 133.4" xml:space="preserve"><style>.st1{fill:#010101}</style><path d="M127.64 34.26c2.87-3.3 4.6-7.52 4.6-12.13 0-10.57-9.08-19.13-20.27-19.13-7.76 0-14.49 4.12-17.9 10.16-7.01-1.96-14.53-3.01-22.36-3.01s-15.35 1.05-22.36 3.01C45.93 7.12 39.2 3 31.44 3c-11.2 0-20.27 8.57-20.27 19.13 0 4.6 1.73 8.83 4.6 12.13C7.74 43.99 3 56.25 3 70.28c0 35.81 30.76 60.12 68.7 60.12s68.7-24.31 68.7-60.12c0-14.03-4.74-26.29-12.76-36.02z" style="fill:#7b5334;stroke:#010101;stroke-width:6"/><circle class="st1" cx="35.54" cy="53.37" r="7.38"/><circle class="st1" cx="107.86" cy="53.37" r="7.38"/><ellipse cx="71.7" cy="93.81" rx="32.52" ry="26.61" style="fill:#c6a179"/><path class="st1" d="M79.87 74.34c0 2.18-3.66 6.11-8.17 6.11s-8.17-3.93-8.17-6.11 3.66-3.95 8.17-3.95 8.17 1.76 8.17 3.95z"/><path d="M53.4 96.98c4.54 3.37 13.37 5.01 19.41 4.11" style="fill:none;stroke:#010101;stroke-width:6;stroke-linecap:round;stroke-linejoin:round"/></svg>