<svg version="1.1" id="Layer_1" xmlns="http://www.w3.org/2000/svg" x="0" y="0" viewBox="0 0 149.86 142.56" style="enable-background:new 0 0 149.86 142.56" xml:space="preserve"><style>.st0{fill:#fff;stroke:#010101;stroke-width:12.6152}.st3{fill:#010101}.st4{fill:#fff}</style><ellipse transform="rotate(-18.684 27.605 25.946)" class="st0" cx="27.6" cy="25.95" rx="21.49" ry="19.41"/><ellipse transform="rotate(-71.313 122.259 25.945)" class="st0" cx="122.26" cy="25.95" rx="19.41" ry="21.49"/><path d="M144.32 76.86c0-37.94-30.76-68.7-68.7-68.7s-68.7 30.76-68.7 68.7 30.76 62.7 68.7 62.7 68.7-24.76 68.7-62.7z" style="fill:#fff;stroke:#010101;stroke-width:6"/><path d="M80.32 117.37c-3.25.72-6.54.67-9.66-.04" style="fill:none;stroke:#010101;stroke-width:6;stroke-linecap:round;stroke-linejoin:round"/><ellipse transform="rotate(-52.034 43.094 77.534)" class="st3" cx="43.1" cy="77.54" rx="27.41" ry="26.04"/><ellipse transform="rotate(-52.034 46.094 77.534)" class="st4" cx="46.1" cy="77.54" rx="15.67" ry="14.89"/><ellipse transform="rotate(-52.034 49.093 77.534)" class="st3" cx="49.1" cy="77.54" rx="10.37" ry="9.86"/><g><ellipse transform="rotate(-37.964 107.194 77.535)" class="st3" cx="107.19" cy="77.54" rx="26.04" ry="27.41"/><ellipse transform="rotate(-37.964 104.194 77.536)" class="st4" cx="104.19" cy="77.54" rx="14.89" ry="15.67"/><ellipse transform="rotate(-37.964 101.194 77.536)" class="st3" cx="101.19" cy="77.54" rx="9.86" ry="10.37"/></g><path class="st3" d="M83.43 101.43c0 2.18-3.66 6.11-8.17 6.11s-8.17-3.93-8.17-6.11 3.66-3.95 8.17-3.95 8.17 1.77 8.17 3.95z"/></svg>