<svg version="1.1" id="Layer_1" xmlns="http://www.w3.org/2000/svg" x="0" y="0" viewBox="0 0 151.85 143.4" style="enable-background:new 0 0 151.85 143.4" xml:space="preserve"><style>.st1{fill:#010101}</style><circle cx="76.46" cy="71.7" r="68.7" style="fill:#f7c951;stroke:#010101;stroke-width:6"/><path class="st1" d="M53.26 99.35c-3.49.09-4.96 4.56-2.16 6.64a41.802 41.802 0 0 0 25.01 8.26c10.14 0 19.43-3.59 26.69-9.58 2.68-2.21.97-6.58-2.51-6.5 0 0-10.29 3.58-23.42 3.58s-23.61-2.4-23.61-2.4zM151.47 41.23c-.14-1.66-1.33-2.93-2.73-2.92l-55.38 2.9c-3.48-.16-6.71 1.9-8.22 5.24l-2.99 6.61c-.69 1.43-1.91 2.38-3.28 2.6v-.03h-6.05c-1.3-.27-2.44-1.2-3.1-2.57l-2.99-6.61c-1.51-3.34-4.75-5.4-8.22-5.24l-55.38-2.9C1.74 38.3.55 39.57.4 41.23L0 45.54c-.16 1.82 5.96 6.7 6.77 10.75 1.2 6.07.3 14.29 3.66 19.07 5.6 7.96 28.75 13.82 28.75 13.82 9.73 2.8 19.97-2 24.62-11.52l4.92-10.09c.76-1.91 2.35-3.12 4.07-3.19h6.07c1.8-.02 3.48 1.21 4.27 3.19l4.92 10.09c4.65 9.53 14.89 14.32 24.62 11.52 0 0 23.15-5.86 28.75-13.82 3.36-4.77 2.45-13 3.66-19.07.8-4.05 6.93-8.94 6.77-10.75l-.38-4.31z"/></svg>